<?xml version="1.0" standalone="no"?><!DOCTYPE svg PUBLIC "-//W3C//DTD SVG 1.1//EN" "http://www.w3.org/Graphics/SVG/1.1/DTD/svg11.dtd"><svg viewBox="0 0 16 16" aria-hidden="true" role="presentation" focusable="false" style="block-size:16px;cursor:pointer;display:block;fill:rgb(34, 34, 34);font-weight:500;height:16px;inline-size:16px;line-height:18px;min-block-size:auto;min-height:auto;min-inline-size:auto;min-width:auto;perspective-origin:8px 8px;text-wrap:nowrap;transform-origin:8px 8px;width:16px;" version="1.1" xmlns="http://www.w3.org/2000/svg" xmlns:xlink="http://www.w3.org/1999/xlink"><path d="M8 .25a7.77 7.77 0 0 1 7.75 7.78 7.75 7.75 0 0 1-7.52 7.72h-.25A7.75 7.75 0 0 1 .25 8.24v-.25A7.75 7.75 0 0 1 8 .25zm1.95 8.5h-3.9c.15 2.9 1.17 5.34 1.88 5.5H8c.68 0 1.72-2.37 1.93-5.23zm4.26 0h-2.76c-.09 1.96-.53 3.78-1.18 5.08A6.26 6.26 0 0 0 14.17 9zm-9.67 0H1.8a6.26 6.26 0 0 0 3.94 5.08 12.59 12.59 0 0 1-1.16-4.7l-.03-.38zm1.2-6.58-.12.05a6.26 6.26 0 0 0-3.83 5.03h2.75c.09-1.83.48-3.54 1.06-4.81zm2.25-.42c-.7 0-1.78 2.51-1.94 5.5h3.9c-.15-2.9-1.18-5.34-1.89-5.5h-.07zm2.28.43.03.05a12.95 12.95 0 0 1 1.15 5.02h2.75a6.28 6.28 0 0 0-3.93-5.07z" style="block-size:auto;cursor:pointer;d:path(&quot;M 8 0.25 A 7.77 7.77 0 0 1 15.75 8.03 A 7.75 7.75 0 0 1 8.23 15.75 H 7.98 A 7.75 7.75 0 0 1 0.25 8.24 V 7.99 A 7.75 7.75 0 0 1 8 0.25 Z M 9.95 8.75 H 6.05 C 6.2 11.65 7.22 14.09 7.93 14.25 H 8 C 8.68 14.25 9.72 11.88 9.93 9.02 Z M 14.21 8.75 H 11.45 C 11.36 10.71 10.92 12.53 10.27 13.83 A 6.26 6.26 0 0 0 14.17 9 Z M 4.54 8.75 H 1.8 A 6.26 6.26 0 0 0 5.74 13.83 A 12.59 12.59 0 0 1 4.58 9.13 L 4.55 8.75 Z M 5.74 2.17 L 5.62 2.22 A 6.26 6.26 0 0 0 1.79 7.25 H 4.54 C 4.63 5.42 5.02 3.71 5.6 2.44 Z M 7.99 1.75 C 7.29 1.75 6.21 4.26 6.05 7.25 H 9.95 C 9.8 4.35 8.77 1.91 8.06 1.75 H 7.99 Z M 10.27 2.18 L 10.3 2.23 A 12.95 12.95 0 0 1 11.45 7.25 H 14.2 A 6.28 6.28 0 0 0 10.27 2.18 Z&quot;);fill:rgb(34, 34, 34);font-weight:500;height:auto;inline-size:auto;line-height:18px;overflow-clip-margin:0px;overflow-x:visible;overflow-y:visible;perspective-origin:0px 0px;text-wrap:nowrap;transform-origin:0px 0px;width:auto;"/></svg>